#!OML:ASF H:\Dans Jumps\Project 1\Capture day 1\Session 1\subject.ASF
:FULLY-SPECIFIED
:DEGREES
111
root 0.561935 17.6354 -14.0967 6.13656 -0.259735 -1.1486
lowerback -4.83716 -0.443689 -0.123132
upperback 3.23716 -0.664121 1.41576
thorax 6.09921 -0.366062 1.47617
lowerneck -12.2352 0.47461 -2.01409
upperneck 36.3455 1.03365 0.642802
head 14.5475 0.250336 0.78367
rclavicle 2.28602e-015 -7.35503e-015
rhumerus -22.79 -10.807 -84.8127
rradius 24.3695
rwrist 32.7368
rhand -19.4943 -26.6395
rfingers 7.12502
rthumb 6.82805 -56.5094
lclavicle 2.28602e-015 -7.35503e-015
lhumerus -19.228 -7.2658 91.2155
lradius 18.4453
lwrist 0.82274
lhand -25.2295 -4.15188
lfingers 7.12502
lthumb 1.2899 25.824
rfemur -11.1963 -3.30191 19.1826
rtibia 18.4065
rfoot -12.3423 -3.35303
rtoes 11.7696
lfemur -8.54131 5.85831 -17.5481
ltibia 14.4101
lfoot -9.4404 5.83
ltoes 0.629076
112
root 0.562255 17.635 -14.0973 6.13138 -0.25472 -1.15065
lowerback -4.82967 -0.442758 -0.123951
upperback 3.23826 -0.6629 1.41797
thorax 6.09607 -0.36554 1.4791
lowerneck -12.2333 0.474985 -2.01521
upperneck 36.3308 1.03591 0.63899
head 14.5402 0.250849 0.78251
rclavicle -4.17448e-015 6.55989e-015
rhumerus -22.7974 -10.816 -84.8059
rradius 24.366
rwrist 32.7497
rhand -19.4995 -26.6396
rfingers 7.12502
rthumb 6.82295 -56.5097
lclavicle -4.17448e-015 6.55989e-015
lhumerus -19.2445 -7.25097 91.2227
lradius 18.423
lwrist 0.80296
lhand -25.2508 -4.17052
lfingers 7.12502
lthumb 1.26937 25.8055
rfemur -11.1981 -3.31167 19.1835
rtibia 18.4163
rfoot -12.3457 -3.34774
rtoes 11.763
lfemur -8.5533 5.85266 -17.5471
ltibia 14.4376
lfoot -9.44712 5.8352
ltoes 0.605795
113
root 0.562601 17.6347 -14.0979 6.12632 -0.25016 -1.15256
lowerback -4.82326 -0.441703 -0.124536
upperback 3.23937 -0.66153 1.42006
thorax 6.09356 -0.364934 1.48178
lowerneck -12.233 0.475018 -2.01653
upperneck 36.317 1.03788 0.634867
head 14.5336 0.251153 0.781234
rclavicle -1.78906e-015 -5.96354e-016
rhumerus -22.8049 -10.8281 -84.7986
rradius 24.3628
rwrist 32.7648
rhand -19.5069 -26.6389
rfingers 7.12502
rthumb 6.81583 -56.5092
lclavicle -1.78906e-015 -5.96354e-016
lhumerus -19.2621 -7.24603 91.2317
lradius 18.4062
lwrist 0.791238
lhand -25.265 -4.16758
lfingers 7.12502
lthumb 1.25563 25.8085
rfemur -11.2006 -3.32154 19.1841
rtibia 18.4278
rfoot -12.3497 -3.34165
rtoes 11.7629
lfemur -8.5637 5.84841 -17.5465
ltibia 14.4631
lfoot -9.45434 5.83881
ltoes 0.586854
114
root 0.562951 17.6344 -14.0985 6.12137 -0.24528 -1.15353
lowerback -4.81761 -0.440961 -0.126121
upperback 3.24098 -0.660501 1.42187
thorax 6.09203 -0.364537 1.48468
lowerneck -12.2377 0.475352 -2.0157
upperneck 36.3064 1.04036 0.629312
head 14.5297 0.251734 0.779129
rclavicle 4.62174e-015 -1.55052e-014
rhumerus -22.8101 -10.8421 -84.7915
rradius 24.3583
rwrist 32.7822
rhand -19.5167 -26.6362
rfingers 7.12502
rthumb 6.80636 -56.5068
lclavicle 4.62174e-015 -1.55052e-014
lhumerus -19.2783 -7.24753 91.2412
lradius 18.3934
lwrist 0.784313
lhand -25.2732 -4.15533
lfingers 7.12502
lthumb 1.24772 25.8208
rfemur -11.2036 -3.33233 19.1837
rtibia 18.4401
rfoot -12.3534 -3.33576
rtoes 11.7664
lfemur -8.57356 5.84211 -17.5469
ltibia 14.4881
lfoot -9.46279 5.84445
ltoes 0.575953
115
root 0.563268 17.634 -14.0992 6.11634 -0.240154 -1.1545
lowerback -4.81126 -0.440858 -0.128742
upperback 3.24206 -0.660277 1.42439
thorax 6.08958 -0.364593 1.48884
lowerneck -12.2438 0.475824 -2.01602
upperneck 36.2971 1.04326 0.62416
head 14.5268 0.252368 0.777483
rclavicle -1.09332e-015 1.72943e-014
rhumerus -22.8148 -10.853 -84.7838
rradius 24.3518
rwrist 32.7979
rhand -19.5248 -26.6334
rfingers 7.12502
rthumb 6.79854 -56.5042
lclavicle -1.09332e-015 1.72943e-014
lhumerus -19.2929 -7.24621 91.2504
lradius 18.3826
lwrist 0.779056
lhand -25.262 -4.12677
lfingers 7.12502
lthumb 1.25849 25.8493
rfemur -11.2065 -3.34193 19.1835
rtibia 18.4528
rfoot -12.3576 -3.3315
rtoes 11.7716
lfemur -8.58308 5.83654 -17.5472
ltibia 14.5128
lfoot -9.47161 5.84914
ltoes 0.566729
116
root 0.563524 17.6337 -14.0999 6.11016 -0.234449 -1.15674
lowerback -4.80361 -0.441334 -0.130644
upperback 3.24311 -0.660908 1.42753
thorax 6.08638 -0.365052 1.49315
lowerneck -12.2494 0.47655 -2.01636
upperneck 36.2876 1.04682 0.618211
head 14.5236 0.253168 0.775609
rclavicle 1.11816e-014 -1.49089e-014
rhumerus -22.8198 -10.861 -84.7766
rradius 24.3457
rwrist 32.8108
rhand -19.534 -26.6271
rfingers 7.12502
rthumb 6.78967 -56.4982
lclavicle 1.11816e-014 -1.49089e-014
lhumerus -19.3065 -7.24137 91.2584
lradius 18.3742
lwrist 0.77082
lhand -25.2373 -4.09142
lfingers 7.12502
lthumb 1.28233 25.8845
rfemur -11.2081 -3.3481 19.1849
rtibia 18.4655
rfoot -12.361 -3.3313
rtoes 11.7766
lfemur -8.59214 5.83284 -17.5457
ltibia 14.5385
lfoot -9.48184 5.85146
ltoes 0.559432
117
root 0.563731 17.6334 -14.1006 6.10307 -0.226947 -1.15844
lowerback -4.79414 -0.442634 -0.133213
upperback 3.24316 -0.662562 1.43061
thorax 6.08111 -0.366033 1.49768
lowerneck -12.2503 0.477424 -2.0188
upperneck 36.2751 1.05017 0.614603
head 14.5179 0.253949 0.774975
rclavicle -2.18663e-015 -4.96962e-015
rhumerus -22.8262 -10.8687 -84.769
rradius 24.3388
rwrist 32.8215
rhand -19.5461 -26.614
rfingers 7.12502
rthumb 6.77802 -56.4855
lclavicle -2.18663e-015 -4.96962e-015
lhumerus -19.3203 -7.23216 91.2652
lradius 18.3682
lwrist 0.760774
lhand -25.2008 -4.04981
lfingers 7.12502
lthumb 1.31763 25.9259
rfemur -11.2081 -3.35227 19.1862
rtibia 18.4778
rfoot -12.3658 -3.33562
rtoes 11.7808
lfemur -8.60177 5.82798 -17.5442
ltibia 14.5656
lfoot -9.49229 5.85272
ltoes 0.558655
